<?xml version="1.0" encoding="utf-8"?>
<!-- Generator: Adobe Illustrator 19.2.1, SVG Export Plug-In . SVG Version: 6.00 Build 0)  -->
<svg version="1.1" id="Layer_1" xmlns="http://www.w3.org/2000/svg" xmlns:xlink="http://www.w3.org/1999/xlink" x="0px" y="0px"
	 viewBox="0 0 960 560" style="enable-background:new 0 0 960 560;" xml:space="preserve">
<style type="text/css">
	.st0{fill:none;stroke:#000000;stroke-miterlimit:10;}
	.st1{fill:#030104;}
	.st2{fill:none;}
	.st3{font-family:'Apple-Chancery';}
	.st4{font-size:48px;}
	.st5{font-family:'TimesNewRomanPS-ItalicMT';}
	.st6{font-size:120px;}
</style>
<line class="st0" x1="99.6" y1="170" x2="436" y2="171"/>
<g>
	<g>
		<path class="st1" d="M481.9,154.1c-9.8-1.2-18.1,7-16.8,16.8c0.8,6.7,6.2,12.1,12.9,12.9c9.8,1.2,18.1-7,16.8-16.8
			C494,160.4,488.6,155,481.9,154.1z M520,139h-12c-1.7,0-3.4-1.3-3.9-2.8l-3.1-9.3c-0.5-1.6-2.3-2.8-3.9-2.8h-34
			c-1.7,0-3.4,1.3-3.9,2.8l-3.1,9.3c-0.5,1.6-2.3,2.8-3.9,2.8h-12c-5.5,0-10,4.5-10,10v45c0,5.5,4.5,10,10,10h80c5.5,0,10-4.5,10-10
			v-45C530,143.5,525.5,139,520,139z M520.7,152.4c-2.5,0.5-4.6-1.7-4.1-4.1c0.3-1.4,1.4-2.5,2.8-2.8c2.5-0.5,4.6,1.7,4.1,4.1
			C523.2,151,522.1,152.2,520.7,152.4z M481.8,191.2c-13.7,1.1-25.1-10.3-24-24c0.9-10.8,9.6-19.5,20.4-20.4
			c13.7-1.1,25.1,10.3,24.1,24.1C501.4,181.7,492.6,190.4,481.8,191.2z"/>
	</g>
</g>
<line class="st0" x1="525.9" y1="171" x2="846.4" y2="170"/>
<line class="st0" x1="93" y1="372" x2="313.5" y2="372"/>
<line class="st0" x1="637.5" y1="372" x2="858" y2="372"/>
<rect x="341.9" y="350.6" class="st2" width="265.7" height="43.1"/>
<text transform="matrix(1 0 0 1 341.9404 392.165)" class="st3 st4">Photography</text>
<rect x="181.7" y="225.4" class="st2" width="596.6" height="107.9"/>
<text transform="matrix(1 0 0 1 181.6772 309.4481)" class="st5 st6">Lukas Petko</text>
</svg>
